<svg id="Layer_1" data-name="Layer 1" xmlns="http://www.w3.org/2000/svg" viewBox="0 0 245.67 228.94"><defs><style>.cls-1{fill:none;stroke:#a0a9d9;stroke-miterlimit:10;stroke-width:5px;}</style></defs><polygon class="cls-1" points="242.19 86.62 235.68 95.91 122.83 16.89 9.99 95.91 3.48 86.62 122.83 3.05 242.19 86.62"/><line class="cls-1" x1="235.68" y1="95.91" x2="235.68" y2="214.97"/><polyline class="cls-1" points="3.48 123.65 122.83 40.08 242.19 123.65"/><polyline class="cls-1" points="3.48 146.33 122.83 62.76 242.19 146.33"/><polyline class="cls-1" points="3.48 169.01 122.83 85.44 242.19 169.01"/><polyline class="cls-1" points="3.48 191.68 122.83 108.11 242.19 191.68"/><rect class="cls-1" x="3.48" y="215.1" width="238.7" height="11.34"/><line class="cls-1" x1="9.99" y1="95.91" x2="9.99" y2="215.1"/><line class="cls-1" x1="89.72" y1="40.08" x2="155.95" y2="40.08"/><line class="cls-1" x1="90.32" y1="108.11" x2="155.34" y2="108.11"/><line class="cls-1" x1="90.32" y1="85.44" x2="155.34" y2="85.44"/><line class="cls-1" x1="122.83" y1="16.89" x2="122.83" y2="108.11"/><line class="cls-1" x1="155.58" y1="62.76" x2="90.08" y2="62.76"/><line class="cls-1" x1="49.49" y1="91.44" x2="49.49" y2="77.27"/><line class="cls-1" x1="63.89" y1="81.35" x2="63.89" y2="67.05"/><line class="cls-1" x1="79.5" y1="70.42" x2="79.5" y2="56.26"/><line class="cls-1" x1="93.92" y1="60.33" x2="93.92" y2="46.08"/><line class="cls-1" x1="33.93" y1="102.33" x2="33.93" y2="88.11"/><line class="cls-1" x1="49.49" y1="91.44" x2="49.49" y2="77.27"/><line class="cls-1" x1="63.89" y1="81.35" x2="63.89" y2="67.05"/><line class="cls-1" x1="79.5" y1="70.42" x2="79.5" y2="56.26"/><line class="cls-1" x1="93.92" y1="60.33" x2="93.92" y2="46.08"/><line class="cls-1" x1="33.93" y1="102.33" x2="33.93" y2="88.11"/><line class="cls-1" x1="197.57" y1="92.31" x2="197.57" y2="78.14"/><line class="cls-1" x1="183.16" y1="82.22" x2="183.16" y2="67.92"/><line class="cls-1" x1="167.55" y1="71.29" x2="167.55" y2="57.12"/><line class="cls-1" x1="153.13" y1="61.2" x2="153.13" y2="46.95"/><line class="cls-1" x1="213.12" y1="103.2" x2="213.12" y2="88.98"/><line class="cls-1" x1="49.49" y1="114.17" x2="49.49" y2="100"/><line class="cls-1" x1="63.89" y1="104.08" x2="63.89" y2="89.78"/><line class="cls-1" x1="79.5" y1="93.15" x2="79.5" y2="78.99"/><line class="cls-1" x1="93.92" y1="83.05" x2="93.92" y2="68.81"/><line class="cls-1" x1="33.93" y1="125.06" x2="33.93" y2="110.84"/><line class="cls-1" x1="197.57" y1="115.03" x2="197.57" y2="100.87"/><line class="cls-1" x1="183.16" y1="104.95" x2="183.16" y2="90.65"/><line class="cls-1" x1="167.55" y1="94.02" x2="167.55" y2="79.85"/><line class="cls-1" x1="153.13" y1="83.93" x2="153.13" y2="69.68"/><line class="cls-1" x1="213.12" y1="125.93" x2="213.12" y2="111.7"/><line class="cls-1" x1="49.49" y1="137.66" x2="49.49" y2="123.49"/><line class="cls-1" x1="63.89" y1="127.58" x2="63.89" y2="113.28"/><line class="cls-1" x1="79.5" y1="116.65" x2="79.5" y2="102.48"/><line class="cls-1" x1="93.92" y1="106.55" x2="93.92" y2="92.31"/><line class="cls-1" x1="33.93" y1="148.56" x2="33.93" y2="134.33"/><line class="cls-1" x1="197.57" y1="138.53" x2="197.57" y2="124.36"/><line class="cls-1" x1="183.16" y1="128.44" x2="183.16" y2="114.14"/><line class="cls-1" x1="167.55" y1="117.51" x2="167.55" y2="103.35"/><line class="cls-1" x1="153.13" y1="107.42" x2="153.13" y2="93.18"/><line class="cls-1" x1="213.12" y1="149.42" x2="213.12" y2="135.2"/><line class="cls-1" x1="49.49" y1="159.11" x2="49.49" y2="144.94"/><line class="cls-1" x1="63.89" y1="149.02" x2="63.89" y2="134.72"/><line class="cls-1" x1="79.5" y1="138.09" x2="79.5" y2="123.93"/><line class="cls-1" x1="93.92" y1="128" x2="93.92" y2="113.75"/><line class="cls-1" x1="33.93" y1="170" x2="33.93" y2="155.78"/><line class="cls-1" x1="197.57" y1="159.98" x2="197.57" y2="145.81"/><line class="cls-1" x1="183.16" y1="149.89" x2="183.16" y2="135.59"/><line class="cls-1" x1="167.55" y1="138.96" x2="167.55" y2="124.79"/><line class="cls-1" x1="153.13" y1="128.87" x2="153.13" y2="114.62"/><line class="cls-1" x1="213.12" y1="170.87" x2="213.12" y2="156.65"/><rect class="cls-1" x="80.93" y="160.68" width="31.18" height="36.85"/><line class="cls-1" x1="73.85" y1="190.29" x2="119.2" y2="190.29"/><rect class="cls-1" x="133.38" y="160.68" width="31.18" height="36.85"/><line class="cls-1" x1="126.3" y1="190.29" x2="171.65" y2="190.29"/></svg>