<svg id="Layer_1" data-name="Layer 1" xmlns="http://www.w3.org/2000/svg" viewBox="0 0 229.61 227.09"><defs><style>.cls-1{fill:#303473;}.cls-2,.cls-3,.cls-4,.cls-5{fill:none;stroke-width:5px;}.cls-2,.cls-3,.cls-4{stroke:#303473;}.cls-2,.cls-4{stroke-linecap:round;}.cls-2{stroke-linejoin:bevel;}.cls-3,.cls-4,.cls-5{stroke-miterlimit:10;}.cls-5{stroke:#fff;}</style></defs><rect class="cls-1" y="159.84" width="227.54" height="67.25"/><polygon class="cls-2" points="228.23 53.44 77.1 53.44 152.67 3.2 228.23 53.44"/><rect class="cls-3" x="115.67" y="72" width="21.67" height="21.67"/><rect class="cls-3" x="167.99" y="119" width="21.67" height="21.67"/><rect class="cls-3" x="167.99" y="72" width="21.67" height="21.67"/><rect class="cls-3" x="115.67" y="119" width="21.67" height="21.67"/><rect class="cls-4" x="92.22" y="54.05" width="120.9" height="105.79"/><polyline class="cls-5" points="92.22 159.84 92.22 173.33 105.71 173.33 105.71 186.82 119.2 186.82 119.2 200.32 132.69 200.32 132.69 213.81 146.19 213.81 213.12 213.81 213.12 159.84"/><polygon class="cls-5" points="65.06 194.53 45.16 174.79 45.2 184.5 13.92 184.81 13.94 204.79 45.27 204.47 45.32 214.44 65.06 194.53"/><polygon class="cls-1" points="157.48 3.2 152.67 0 147.85 3.2 147.43 3.48 150.38 7.92 152.67 6.4 154.95 7.92 157.9 3.48 157.48 3.2"/></svg>