<?xml version="1.0" encoding="utf-8"?>
<!-- Generator: Adobe Illustrator 15.1.0, SVG Export Plug-In . SVG Version: 6.00 Build 0)  -->
<!DOCTYPE svg PUBLIC "-//W3C//DTD SVG 1.1//EN" "http://www.w3.org/Graphics/SVG/1.1/DTD/svg11.dtd">
<svg version="1.1" xmlns="http://www.w3.org/2000/svg" xmlns:xlink="http://www.w3.org/1999/xlink" x="0px" y="0px"
	 width="268.42px" height="80.167px" viewBox="0 0 268.42 80.167" enable-background="new 0 0 268.42 80.167" xml:space="preserve">
<g id="Layer_1">
</g>
<g id="Layer_2">
	<g>
		<g>
			<path fill="#50579A" d="M0.198,53.149v-0.145c0-15.193,11.593-27.218,27.579-27.218c10.513,0,17.209,4.249,21.89,10.297
				l-10.225,8.498c-3.168-3.673-6.769-6.121-11.809-6.121c-7.705,0-13.033,6.48-13.033,14.4v0.145
				c0,8.137,5.328,14.545,13.033,14.545c5.544,0,8.856-2.52,12.169-6.336l10.225,7.705c-5.04,6.553-11.521,11.305-22.826,11.305
				C12.151,80.224,0.198,68.702,0.198,53.149z"/>
			<path fill="#50579A" d="M75.152,26.435h13.321l22.322,52.781H95.962l-3.96-9.865H71.336l-3.96,9.865H52.831L75.152,26.435z
				 M87.753,58.261l-6.048-15.266l-6.121,15.266H87.753z"/>
			<path fill="#50579A" d="M111.871,53.149v-0.145c0-15.193,11.593-27.218,27.579-27.218c10.512,0,17.209,4.249,21.889,10.297
				l-10.225,8.498c-3.168-3.673-6.77-6.121-11.809-6.121c-7.705,0-13.033,6.48-13.033,14.4v0.145
				c0,8.137,5.328,14.545,13.033,14.545c5.545,0,8.855-2.52,12.168-6.336l10.225,7.705c-5.039,6.553-11.52,11.305-22.824,11.305
				C123.824,80.224,111.871,68.702,111.871,53.149z"/>
			<path fill="#50579A" d="M169.11,26.795h13.896v19.874h19.227V26.795h13.896v52.421h-13.896V59.054h-19.227v20.162H169.11V26.795z
				"/>
			<path fill="#50579A" d="M226.638,26.795h41.619v11.881h-27.865v8.569h25.057v11.16h-25.057v8.93h28.227v11.881h-41.98V26.795z"/>
		</g>
		<polygon fill="#50579A" points="204.032,7.77 204.032,0.17 204.095,0.056 214.298,0.056 214.36,0.202 214.36,14.091 
			214.345,14.289 222.845,19.445 223.065,19.591 205.231,19.591 205.022,19.549 192.36,11.539 192.19,11.507 179.733,19.507 
			179.608,19.506 161.608,19.506 161.776,19.298 192.149,0.673 192.269,0.721 204.026,7.942 		"/>
	</g>
</g>
</svg>
