<svg id="Layer_1" data-name="Layer 1" xmlns="http://www.w3.org/2000/svg" viewBox="0 0 268.42 80.17"><defs><style>.cls-1{fill:#8f93d9;}</style></defs><g id="Layer_2" data-name="Layer 2"><path class="cls-1" d="M.2,53.15V53c0-15.19,11.59-27.21,27.58-27.21C38.29,25.79,45,30,49.67,36.08l-10.23,8.5c-3.17-3.67-6.77-6.12-11.81-6.12-7.7,0-13,6.48-13,14.4V53c0,8.13,5.33,14.54,13,14.54,5.55,0,8.86-2.52,12.17-6.34L50,68.92c-5,6.55-11.52,11.3-22.83,11.3A26.58,26.58,0,0,1,.2,53.15Z" transform="translate(-0.2 -0.06)"/><path class="cls-1" d="M75.15,26.43H88.47l22.32,52.79H96l-4-9.87H71.34l-4,9.87H52.83Zm12.6,31.83L81.71,43,75.58,58.26Z" transform="translate(-0.2 -0.06)"/><path class="cls-1" d="M111.87,53.15V53c0-15.19,11.59-27.21,27.58-27.21,10.51,0,17.21,4.24,21.89,10.29l-10.23,8.5c-3.16-3.67-6.77-6.12-11.81-6.12-7.7,0-13,6.48-13,14.4V53c0,8.13,5.33,14.54,13,14.54,5.55,0,8.86-2.52,12.17-6.34l10.23,7.71c-5,6.55-11.52,11.3-22.83,11.3A26.58,26.58,0,0,1,111.87,53.15Z" transform="translate(-0.2 -0.06)"/><path class="cls-1" d="M169.11,26.8H183V46.67h19.22V26.8h13.9V79.22h-13.9V59.05H183V79.22h-13.9Z" transform="translate(-0.2 -0.06)"/><path class="cls-1" d="M226.64,26.8h41.62V38.68H240.39v8.56h25.06V58.4H240.39v8.93h28.23V79.22h-42V26.8Z" transform="translate(-0.2 -0.06)"/><polygon class="cls-1" points="203.83 7.71 203.83 0.11 203.9 0 214.1 0 214.16 0.15 214.16 14.04 214.15 14.23 222.65 19.39 222.87 19.54 205.03 19.54 204.82 19.49 192.16 11.48 191.99 11.45 179.53 19.45 179.41 19.45 161.41 19.45 161.58 19.24 191.95 0.62 192.07 0.67 203.83 7.89 203.83 7.71"/></g></svg>