<svg id="Layer_1" data-name="Layer 1" xmlns="http://www.w3.org/2000/svg" viewBox="0 0 271.02 228.66"><defs><style>.cls-1{fill:none;stroke:#a0a9d9;stroke-miterlimit:10;stroke-width:5px;}</style></defs><polygon class="cls-1" points="246.95 226.16 246.95 151.79 246.95 77.52 137.66 26.56 24.07 79.52 24.07 151.79 24.07 226.16 246.95 226.16"/><polygon class="cls-1" points="246.95 53.72 163.18 14.66 137.66 2.76 112.14 14.66 24.07 55.73 2.5 65.78 2.5 89.58 24.07 79.52 137.66 26.56 246.95 77.52 268.52 87.58 268.52 63.78 246.95 53.72"/><rect class="cls-1" x="45.64" y="97.8" width="179.74" height="25.67"/><rect class="cls-1" x="45.64" y="123.47" width="179.74" height="25.67"/><rect class="cls-1" x="45.64" y="149.15" width="179.74" height="25.67"/><rect class="cls-1" x="45.64" y="174.82" width="179.74" height="25.67"/><rect class="cls-1" x="45.64" y="200.49" width="179.74" height="25.67"/></svg>