<?xml version="1.0" encoding="UTF-8"?>
<svg width="700pt" height="700pt" version="1.1" viewBox="0 0 700 700" xmlns="http://www.w3.org/2000/svg" xmlns:xlink="http://www.w3.org/1999/xlink">
 <defs>
  <symbol id="v" overflow="visible">
   <path d="m5.5156-0.32812c-0.28125 0.14844-0.57812 0.25781-0.89062 0.32812-0.30469 0.070312-0.625 0.10938-0.96875 0.10938-1 0-1.793-0.27344-2.375-0.82812-0.58594-0.5625-0.875-1.3203-0.875-2.2812 0-0.95703 0.28906-1.7109 0.875-2.2656 0.58203-0.5625 1.375-0.84375 2.375-0.84375 0.34375 0 0.66406 0.039063 0.96875 0.10938 0.3125 0.074219 0.60938 0.18359 0.89062 0.32812v1.25c-0.28125-0.19531-0.5625-0.33594-0.84375-0.42188-0.28125-0.09375-0.57812-0.14062-0.89062-0.14062-0.55469 0-0.98438 0.17969-1.2969 0.53125-0.3125 0.35547-0.46875 0.83984-0.46875 1.4531 0 0.625 0.15625 1.1172 0.46875 1.4688 0.3125 0.35547 0.74219 0.53125 1.2969 0.53125 0.3125 0 0.60938-0.046875 0.89062-0.14062s0.5625-0.23828 0.84375-0.4375z"/>
  </symbol>
  <symbol id="d" overflow="visible">
   <path d="m4.0312-3.2812c-0.125-0.050781-0.25-0.09375-0.375-0.125s-0.25-0.046875-0.375-0.046875c-0.36719 0-0.65234 0.12109-0.85938 0.35938-0.19922 0.24219-0.29688 0.57812-0.29688 1.0156v2.0781h-1.4375v-4.5h1.4375v0.73438c0.1875-0.28906 0.39844-0.50391 0.64062-0.64062 0.23828-0.13281 0.52344-0.20312 0.85938-0.20312 0.050781 0 0.10156 0.007813 0.15625 0.015625 0.0625 0 0.14453 0.007812 0.25 0.015625z"/>
  </symbol>
  <symbol id="a" overflow="visible">
   <path d="m5.1875-2.2656v0.40625h-3.3594c0.03125 0.34375 0.14844 0.60156 0.35938 0.76562 0.20703 0.16797 0.5 0.25 0.875 0.25 0.30078 0 0.60938-0.039062 0.92188-0.125 0.32031-0.09375 0.64844-0.23438 0.98438-0.42188v1.125c-0.33594 0.125-0.67188 0.21875-1.0156 0.28125s-0.68359 0.09375-1.0156 0.09375c-0.82422 0-1.4609-0.20312-1.9062-0.60938-0.44922-0.41406-0.67188-1-0.67188-1.75 0-0.72656 0.21875-1.3008 0.65625-1.7188 0.44531-0.42578 1.0547-0.64062 1.8281-0.64062 0.70703 0 1.2734 0.21484 1.7031 0.64062 0.42578 0.42969 0.64062 0.99609 0.64062 1.7031zm-1.4844-0.46875c0-0.28125-0.078125-0.50391-0.23438-0.67188-0.15625-0.16406-0.36719-0.25-0.625-0.25-0.28125 0-0.51172 0.078125-0.6875 0.23438-0.16797 0.15625-0.27344 0.38672-0.3125 0.6875z"/>
  </symbol>
  <symbol id="e" overflow="visible">
   <path d="m2.7031-2.0312c-0.29297 0-0.51562 0.054688-0.67188 0.15625-0.14844 0.10547-0.21875 0.25781-0.21875 0.45312 0 0.17969 0.054688 0.32031 0.17188 0.42188 0.125 0.10547 0.29688 0.15625 0.51562 0.15625 0.26953 0 0.49219-0.09375 0.67188-0.28125 0.1875-0.19531 0.28125-0.44141 0.28125-0.73438v-0.17188zm2.2031-0.53125v2.5625h-1.4531v-0.67188c-0.1875 0.28125-0.40625 0.48438-0.65625 0.60938-0.24219 0.11328-0.53125 0.17188-0.875 0.17188-0.46875 0-0.85156-0.13281-1.1406-0.40625-0.28125-0.26953-0.42188-0.61719-0.42188-1.0469 0-0.53125 0.17578-0.92188 0.53125-1.1719 0.36328-0.25 0.9375-0.375 1.7188-0.375h0.84375v-0.10938c0-0.22656-0.089844-0.39453-0.26562-0.5-0.17969-0.10156-0.46094-0.15625-0.84375-0.15625-0.30469 0-0.58984 0.03125-0.85938 0.09375-0.26172 0.0625-0.50781 0.15625-0.73438 0.28125v-1.0938c0.30078-0.082031 0.60938-0.14062 0.92188-0.17188 0.3125-0.039063 0.625-0.0625 0.9375-0.0625 0.8125 0 1.3945 0.16406 1.75 0.48438 0.36328 0.3125 0.54688 0.83594 0.54688 1.5625z"/>
  </symbol>
  <symbol id="c" overflow="visible">
   <path d="m2.2656-5.7812v1.2812h1.4844v1.0312h-1.4844v1.9062c0 0.21094 0.039063 0.35156 0.125 0.42188 0.082031 0.074219 0.25 0.10938 0.5 0.10938h0.73438v1.0312h-1.2344c-0.57422 0-0.98047-0.11719-1.2188-0.35938-0.23047-0.23828-0.34375-0.64062-0.34375-1.2031v-1.9062h-0.71875v-1.0312h0.71875v-1.2812z"/>
  </symbol>
  <symbol id="k" overflow="visible">
   <path d="m3.75-3.8438v-2.4062h1.4531v6.25h-1.4531v-0.65625c-0.19922 0.27344-0.41797 0.46875-0.65625 0.59375-0.24219 0.11328-0.51562 0.17188-0.82812 0.17188-0.55469 0-1.0078-0.21875-1.3594-0.65625-0.35547-0.4375-0.53125-1.0039-0.53125-1.7031 0-0.6875 0.17578-1.25 0.53125-1.6875 0.35156-0.44531 0.80469-0.67188 1.3594-0.67188 0.3125 0 0.58594 0.0625 0.82812 0.1875 0.23828 0.125 0.45703 0.32031 0.65625 0.57812zm-0.9375 2.9219c0.30078 0 0.53125-0.11328 0.6875-0.34375 0.16406-0.22656 0.25-0.55469 0.25-0.98438 0-0.42578-0.085938-0.75-0.25-0.96875-0.15625-0.22656-0.38672-0.34375-0.6875-0.34375-0.3125 0-0.55469 0.11719-0.71875 0.34375-0.15625 0.21875-0.23438 0.54297-0.23438 0.96875 0 0.42969 0.078125 0.75781 0.23438 0.98438 0.16406 0.23047 0.40625 0.34375 0.71875 0.34375z"/>
  </symbol>
  <symbol id="j" overflow="visible">
   <path d="m3.0938-0.92188c0.30078 0 0.53125-0.11328 0.6875-0.34375 0.16406-0.22656 0.25-0.55469 0.25-0.98438 0-0.42578-0.085938-0.75-0.25-0.96875-0.15625-0.22656-0.38672-0.34375-0.6875-0.34375-0.3125 0-0.55469 0.11719-0.71875 0.34375-0.16797 0.21875-0.25 0.54297-0.25 0.96875 0 0.42969 0.082031 0.75781 0.25 0.98438 0.16406 0.23047 0.40625 0.34375 0.71875 0.34375zm-0.96875-2.9219c0.19531-0.25781 0.41406-0.45312 0.65625-0.57812 0.25-0.125 0.53125-0.1875 0.84375-0.1875 0.55078 0 1.0039 0.22656 1.3594 0.67188 0.36328 0.4375 0.54688 1 0.54688 1.6875 0 0.69922-0.18359 1.2656-0.54688 1.7031-0.35547 0.4375-0.80859 0.65625-1.3594 0.65625-0.3125 0-0.59375-0.058594-0.84375-0.17188-0.24219-0.125-0.46094-0.32031-0.65625-0.59375v0.65625h-1.4375v-6.25h1.4375z"/>
  </symbol>
  <symbol id="i" overflow="visible">
   <path d="m0.09375-4.5h1.4531l1.2031 3.0469 1.0312-3.0469h1.4375l-1.8906 4.9219c-0.1875 0.5-0.41406 0.84766-0.67188 1.0469-0.25 0.20703-0.58594 0.3125-1 0.3125h-0.82812v-0.95312h0.45312c0.23828 0 0.41016-0.042969 0.51562-0.125 0.11328-0.074219 0.20312-0.21094 0.26562-0.40625l0.046875-0.125z"/>
  </symbol>
  <symbol id="h" overflow="visible">
   <path d="m0.75-6h1.9688l1.375 3.2031 1.375-3.2031h1.9688v6h-1.4688v-4.3906l-1.375 3.2344h-0.98438l-1.3906-3.2344v4.3906h-1.4688z"/>
  </symbol>
  <symbol id="u" overflow="visible">
   <path d="m1.8281-2.2969-1.625-2.2031h1.5312l0.92188 1.3281 0.92188-1.3281h1.5312l-1.625 2.1875 1.7031 2.3125h-1.5312l-1-1.4219-1 1.4219h-1.5312z"/>
  </symbol>
  <symbol id="t" overflow="visible">
   <path d="m0.6875-4.5h1.4375v4.5h-1.4375zm0-1.75h1.4375v1.1719h-1.4375z"/>
  </symbol>
  <symbol id="g" overflow="visible">
   <path d="m4.3281-4.3594v1.1719c-0.19922-0.13281-0.39844-0.23438-0.59375-0.29688-0.1875-0.0625-0.39062-0.09375-0.60938-0.09375-0.39844 0-0.71094 0.12109-0.9375 0.35938-0.21875 0.23047-0.32812 0.55469-0.32812 0.96875 0 0.42969 0.10938 0.76172 0.32812 1 0.22656 0.23047 0.53906 0.34375 0.9375 0.34375 0.22656 0 0.44141-0.03125 0.64062-0.09375 0.20703-0.070312 0.39453-0.17578 0.5625-0.3125v1.1875c-0.21875 0.074219-0.44922 0.12891-0.6875 0.17188-0.23047 0.039062-0.46094 0.0625-0.6875 0.0625-0.8125 0-1.4492-0.20703-1.9062-0.625-0.46094-0.41406-0.6875-0.99219-0.6875-1.7344 0-0.73828 0.22656-1.3164 0.6875-1.7344 0.45703-0.41406 1.0938-0.625 1.9062-0.625 0.22656 0 0.45703 0.023437 0.6875 0.0625 0.22656 0.042969 0.45703 0.10547 0.6875 0.1875z"/>
  </symbol>
  <symbol id="b" overflow="visible">
   <path d="m2.8281-3.5781c-0.3125 0-0.55469 0.11719-0.71875 0.34375-0.16797 0.23047-0.25 0.55859-0.25 0.98438 0 0.4375 0.082031 0.77344 0.25 1 0.16406 0.23047 0.40625 0.34375 0.71875 0.34375 0.32031 0 0.5625-0.11328 0.71875-0.34375 0.16406-0.22656 0.25-0.5625 0.25-1 0-0.42578-0.085937-0.75391-0.25-0.98438-0.15625-0.22656-0.39844-0.34375-0.71875-0.34375zm0-1.0312c0.78125 0 1.3828 0.21094 1.8125 0.625 0.4375 0.41797 0.65625 0.99609 0.65625 1.7344 0 0.74219-0.21875 1.3203-0.65625 1.7344-0.42969 0.41797-1.0312 0.625-1.8125 0.625-0.77344 0-1.375-0.20703-1.8125-0.625-0.4375-0.41406-0.65625-0.99219-0.65625-1.7344 0-0.73828 0.21875-1.3164 0.65625-1.7344 0.4375-0.41406 1.0391-0.625 1.8125-0.625z"/>
  </symbol>
  <symbol id="f" overflow="visible">
   <path d="m5.2188-2.7344v2.7344h-1.4531v-2.0938c0-0.39453-0.011719-0.66406-0.03125-0.8125-0.011719-0.14453-0.039063-0.25391-0.078125-0.32812-0.054688-0.09375-0.13281-0.16406-0.23438-0.21875-0.09375-0.050781-0.20312-0.078125-0.32812-0.078125-0.30469 0-0.54297 0.12109-0.71875 0.35938-0.16797 0.23047-0.25 0.54688-0.25 0.95312v2.2188h-1.4375v-4.5h1.4375v0.65625c0.21875-0.25781 0.44531-0.45312 0.6875-0.57812 0.25-0.125 0.51953-0.1875 0.8125-0.1875 0.51953 0 0.91406 0.16406 1.1875 0.48438 0.26953 0.3125 0.40625 0.77734 0.40625 1.3906z"/>
  </symbol>
  <symbol id="s" overflow="visible">
   <path d="m4.2031-4.3594v1.0938c-0.30469-0.13281-0.60156-0.23438-0.89062-0.29688-0.28125-0.0625-0.55469-0.09375-0.8125-0.09375-0.27344 0-0.47656 0.039062-0.60938 0.10938-0.125 0.0625-0.1875 0.16797-0.1875 0.3125 0 0.11719 0.046875 0.20312 0.14062 0.26562 0.10156 0.0625 0.28516 0.10938 0.54688 0.14062l0.25 0.03125c0.73828 0.09375 1.2344 0.25 1.4844 0.46875 0.25781 0.21094 0.39062 0.54297 0.39062 1 0 0.48047-0.17969 0.83984-0.53125 1.0781-0.35547 0.24219-0.88672 0.35938-1.5938 0.35938-0.29297 0-0.60156-0.027344-0.92188-0.078125-0.3125-0.039062-0.63672-0.10938-0.96875-0.20312v-1.0938c0.28125 0.14844 0.57031 0.25781 0.875 0.32812 0.30078 0.0625 0.60938 0.09375 0.92188 0.09375 0.28125 0 0.48828-0.035156 0.625-0.10938 0.14453-0.082031 0.21875-0.19531 0.21875-0.34375 0-0.13281-0.054687-0.23438-0.15625-0.29688-0.09375-0.0625-0.28906-0.10938-0.57812-0.14062l-0.25-0.03125c-0.63672-0.082031-1.0859-0.23438-1.3438-0.45312-0.26172-0.21875-0.39062-0.54688-0.39062-0.98438 0-0.47656 0.16016-0.83203 0.48438-1.0625 0.33203-0.22656 0.83594-0.34375 1.5156-0.34375 0.25781 0 0.53516 0.023437 0.82812 0.0625 0.28906 0.042969 0.60938 0.10547 0.95312 0.1875z"/>
  </symbol>
  <symbol id="r" overflow="visible">
   <path d="m3.6562-6.25v0.9375h-0.79688c-0.21094 0-0.35547 0.039062-0.4375 0.10938-0.074219 0.074219-0.10938 0.20312-0.10938 0.39062v0.3125h1.2344v1.0312h-1.2344v3.4688h-1.4375v-3.4688h-0.71875v-1.0312h0.71875v-0.3125c0-0.48828 0.13281-0.84766 0.40625-1.0781 0.26953-0.23828 0.69141-0.35938 1.2656-0.35938z"/>
  </symbol>
  <symbol id="q" overflow="visible">
   <path d="m4.8594-3.75c0.1875-0.28125 0.40625-0.49219 0.65625-0.64062 0.25-0.14453 0.52344-0.21875 0.82812-0.21875 0.50781 0 0.89844 0.16406 1.1719 0.48438 0.26953 0.3125 0.40625 0.77734 0.40625 1.3906v2.7344h-1.4375v-2.3438-0.10938-0.17188c0-0.3125-0.046875-0.53906-0.14062-0.6875-0.09375-0.14453-0.24609-0.21875-0.45312-0.21875-0.27344 0-0.48438 0.11719-0.64062 0.34375-0.14844 0.23047-0.21875 0.55469-0.21875 0.96875v2.2188h-1.4531v-2.3438c0-0.5-0.042969-0.82031-0.125-0.96875-0.085937-0.14453-0.23438-0.21875-0.45312-0.21875-0.28125 0-0.5 0.11719-0.65625 0.34375-0.14844 0.23047-0.21875 0.55469-0.21875 0.96875v2.2188h-1.4375v-4.5h1.4375v0.65625c0.17578-0.25 0.37891-0.4375 0.60938-0.5625 0.22656-0.13281 0.48438-0.20312 0.76562-0.20312 0.3125 0 0.58594 0.078125 0.82812 0.23438 0.23828 0.14844 0.41406 0.35547 0.53125 0.625z"/>
  </symbol>
  <symbol id="p" overflow="visible">
   <path d="m5.2188-2.7344v2.7344h-1.4531v-2.0938c0-0.39453-0.011719-0.66406-0.03125-0.8125-0.011719-0.14453-0.039063-0.25391-0.078125-0.32812-0.054688-0.09375-0.13281-0.16406-0.23438-0.21875-0.09375-0.050781-0.20312-0.078125-0.32812-0.078125-0.30469 0-0.54297 0.12109-0.71875 0.35938-0.16797 0.23047-0.25 0.54688-0.25 0.95312v2.2188h-1.4375v-6.25h1.4375v2.4062c0.21875-0.25781 0.44531-0.45312 0.6875-0.57812 0.25-0.125 0.51953-0.1875 0.8125-0.1875 0.51953 0 0.91406 0.16406 1.1875 0.48438 0.26953 0.3125 0.40625 0.77734 0.40625 1.3906z"/>
  </symbol>
  <symbol id="o" overflow="visible">
   <path d="m0.75-6h1.7344l2.1875 4.1094v-4.1094h1.4688v6h-1.7344l-2.1875-4.125v4.125h-1.4688z"/>
  </symbol>
  <symbol id="n" overflow="visible">
   <path d="m0.64062-1.75v-2.75h1.4531v0.45312c0 0.24219-0.007812 0.54688-0.015625 0.92188v0.73438c0 0.35547 0.007813 0.61719 0.03125 0.78125 0.019531 0.15625 0.050781 0.27344 0.09375 0.34375 0.0625 0.09375 0.14062 0.16797 0.23438 0.21875 0.09375 0.054687 0.20312 0.078125 0.32812 0.078125 0.30078 0 0.53516-0.11328 0.70312-0.34375 0.17578-0.23828 0.26562-0.5625 0.26562-0.96875v-2.2188h1.4375v4.5h-1.4375v-0.65625c-0.21875 0.27344-0.45312 0.46875-0.70312 0.59375-0.24219 0.11328-0.50781 0.17188-0.79688 0.17188-0.52344 0-0.91797-0.15625-1.1875-0.46875-0.27344-0.32031-0.40625-0.78516-0.40625-1.3906z"/>
  </symbol>
  <symbol id="m" overflow="visible">
   <path d="m0.75-6h2.5781c0.75781 0 1.3438 0.17188 1.75 0.51562 0.41406 0.33594 0.625 0.8125 0.625 1.4375 0 0.63672-0.21094 1.125-0.625 1.4688-0.40625 0.33594-0.99219 0.5-1.75 0.5h-1.0312v2.0781h-1.5469zm1.5469 1.125v1.6719h0.85938c0.30078 0 0.53125-0.070313 0.6875-0.21875 0.16406-0.14453 0.25-0.35156 0.25-0.625 0-0.26953-0.085938-0.47266-0.25-0.60938-0.15625-0.14453-0.38672-0.21875-0.6875-0.21875z"/>
  </symbol>
  <symbol id="l" overflow="visible">
   <path d="m0.6875-4.5h1.4375v4.4219c0 0.60156-0.14844 1.0625-0.4375 1.375-0.28125 0.32031-0.69922 0.48438-1.25 0.48438h-0.70312v-0.95312h0.23438c0.28125 0 0.46875-0.0625 0.5625-0.1875 0.10156-0.11719 0.15625-0.35547 0.15625-0.71875zm0-1.75h1.4375v1.1719h-1.4375z"/>
  </symbol>
 </defs>
 <g>
  <path d="m100.08 519.8c0.26562 2.9688 2.7539 5.2461 5.7344 5.25 0.16406 0 0.34766 0 0.51953-0.023437 1.5234-0.13672 2.9297-0.87109 3.9102-2.0469 0.98047-1.1719 1.457-2.6875 1.3203-4.2109-1.1523-12.895-7.6797-24.324-13.176-31.863 6.6172 0.35938 13.129 1.8164 19.27 4.3086 2.1328 0.98828 4.6523 0.58203 6.3672-1.0273 1.7148-1.6055 2.2812-4.0977 1.4297-6.2891-3.4414-8.6367-7.5938-16.969-12.418-24.918 37.262 4.0117 54.426 29.707 55.191 30.883 1.2773 1.9883 3.6328 2.9961 5.9531 2.543 2.3164-0.44922 4.125-2.2695 4.5625-4.5898l2.6367-14c18.879 19.328 21.262 45.625 21.285 45.922 0.25 3.1719 3.0273 5.543 6.2031 5.293 1.5234-0.12109 2.9375-0.84375 3.9297-2.0078 0.99219-1.1602 1.4805-2.6719 1.3633-4.1953-0.12109-1.5469-3.3047-38.145-33.105-60.613h-0.003906c-1.5898-1.1992-3.6914-1.4922-5.5508-0.77344s-3.2148 2.3477-3.582 4.3086l-2.2617 11.996c-1.5742-1.5859-3.3906-3.2773-5.4336-5.0117v-73.855l60.973 0.003906v124.4-0.003906c0 3.1836 2.582 5.7656 5.7656 5.7656h306.58c0.42969-0.003906 0.85938-0.054687 1.2812-0.15625h73.445-0.003907c0.41016 0.10156 0.83203 0.15234 1.2539 0.16016 1.7617 0 3.4297-0.80469 4.5234-2.1875 1.0938-1.3828 1.4961-3.1914 1.0898-4.9062-2.8594-12.094-11.852-19.688-18.336-23.734 5.0586-7.5469 8.5703-16.02 10.332-24.93 0.28125-1.5664-0.097656-3.1758-1.0469-4.4531-0.94531-1.2734-2.3789-2.1016-3.957-2.2852-8.3867-0.95703-16.883-0.1875-24.965 2.2539 7.7266-20.25 15.164-44.586 15.547-45.844h0.003906c0.61719-2.0273 0.070312-4.2344-1.4258-5.7383-1.4922-1.5078-3.6914-2.0703-5.7266-1.4688-17.52 5.1562-33.438 14.688-46.254 27.699v-220.12l27.211 20.656v0.003907c2.5039 1.8984 6.0703 1.4453 8.0156-1.0234l23.695-30.102v-0.003907c0.95312-1.2109 1.3828-2.75 1.1914-4.2773-0.1875-1.5273-0.98047-2.9141-2.1992-3.8555l-213.45-164.58c-2.0703-1.5977-4.9609-1.5977-7.0352 0l-213.45 164.58c-1.2188 0.94141-2.0117 2.3281-2.2031 3.8555-0.1875 1.5273 0.24219 3.0664 1.1914 4.2773l23.695 30.102 0.003906 0.003906c1.9453 2.4688 5.5078 2.9219 8.0117 1.0234l27.211-20.656v134.8h-115.2c-3.1875 0-5.7656 2.582-5.7656 5.7656v17.168c0.003907 4.7227 1.8828 9.25 5.2227 12.594 3.3438 3.3398 7.8711 5.2188 12.598 5.2227h1.4297v54.074h-0.003906c-7.0391-1.4336-14.211-2.1133-21.395-2.0273-2.1484 0.023437-4.1055 1.2344-5.082 3.1484-0.97656 1.9102-0.80859 4.207 0.4375 5.957 4.543 6.6328 8.6328 13.566 12.23 20.754-7.9102-1.6797-16.059-1.9531-24.062-0.80469-2.1641 0.32422-3.9609 1.8477-4.6328 3.9297-0.67188 2.0859-0.10547 4.3672 1.4648 5.8984 0.16016 0.15625 16.016 15.852 17.637 33.984zm198.41-6.2773-61.758-0.003906v-55.062h44.348v0.003906c3.1836 0 5.7656-2.582 5.7656-5.7656s-2.582-5.7656-5.7656-5.7656h-44.348v-52.047h61.754zm0-130.16h-61.758v-57.371h61.754zm0-68.898h-61.758v-55.754h61.754zm102.36 199.06h-36.961l36.957-58.762zm57.648 0h-46.117l-0.007812-77.098 46.117-73.348zm0-197.86h-0.007812c-0.011719 0.015625-0.023438 0.03125-0.035157 0.046875l-125.47 197.81h-22.977v-42.078c0.019531-0.027344 0.042969-0.042969 0.058593-0.070312l135.08-212.66h13.34zm-114.02 80.047-34.461 54.258v-191.26h34.219v135.45c0.007813 0.52734 0.085937 1.0508 0.23828 1.5586zm56.418-88.816-45.129 71.047v-119.23h45.086v47.766c-0.003906 0.13672 0.027344 0.27734 0.042969 0.41797zm11.488-18.086-0.003906-30.098h19.117zm119.41 224.71h-61.766v-55.062h61.754zm0-66.59h-61.766v-52.047h61.754zm0-63.578-61.766 0.003906v-57.367h61.754zm0-136.18h-45.66c-3.1836 0-5.7617 2.582-5.7617 5.7656s2.5781 5.7656 5.7617 5.7656h45.648v55.754h-61.754v-61.516c0-1.5273-0.60938-2.9922-1.6914-4.0742-1.0781-1.082-2.5469-1.6875-4.0742-1.6875h-227.53v-11.48l58.812-44.004 173.62 0.93359c0.082032 0 0.15625-0.019531 0.23438-0.023438l62.387 46zm-222.09-66.066 59.844-44.773 11.668-8.7305 11.844 8.7305 60.727 44.773zm-114.17 46.281-16.594-21.082 205.32-158.3 205.32 158.31-16.594 21.082-185.24-140.62c-2.0586-1.5664-4.9102-1.5664-6.9727 0zm-42.824 233.04c-5.5781-3.4023-11.512-6.1875-17.691-8.3125v-34.059l17.691-4.9141zm-30.648-77.066c-3.4727-0.003907-6.2891-2.8164-6.2891-6.2891v-11.402h109.43v17.691z"/>
  <path d="m398.87 382.7c0 3.5469-2.875 6.4219-6.4219 6.4219-3.5469 0-6.4219-2.875-6.4219-6.4219s2.875-6.4219 6.4219-6.4219c3.5469 0 6.4219 2.875 6.4219 6.4219"/>
  <path d="m332.61 469.31c-2.5977 0-4.9375 1.5625-5.9336 3.9648-0.99609 2.3984-0.44531 5.1641 1.3906 7 1.8398 1.8359 4.6016 2.3867 7.0039 1.3945 2.3984-0.99609 3.9648-3.3398 3.9648-5.9375 0-3.5469-2.8789-6.4219-6.4258-6.4219z"/>
  <path d="m440.36 315.87c0 3.5469-2.875 6.4219-6.4219 6.4219s-6.4219-2.875-6.4219-6.4219c0-3.543 2.875-6.4219 6.4219-6.4219s6.4219 2.8789 6.4219 6.4219"/>
  <use x="70" y="584.707031" xlink:href="#v"/>
  <use x="76.042969" y="584.707031" xlink:href="#d"/>
  <use x="80.105469" y="584.707031" xlink:href="#a"/>
  <use x="85.691406" y="584.707031" xlink:href="#e"/>
  <use x="91.246094" y="584.707031" xlink:href="#c"/>
  <use x="95.183594" y="584.707031" xlink:href="#a"/>
  <use x="100.769531" y="584.707031" xlink:href="#k"/>
  <use x="109.53125" y="584.707031" xlink:href="#j"/>
  <use x="115.425781" y="584.707031" xlink:href="#i"/>
  <use x="123.664062" y="584.707031" xlink:href="#h"/>
  <use x="131.855469" y="584.707031" xlink:href="#e"/>
  <use x="137.414062" y="584.707031" xlink:href="#u"/>
  <use x="142.726562" y="584.707031" xlink:href="#t"/>
  <use x="145.550781" y="584.707031" xlink:href="#g"/>
  <use x="150.429688" y="584.707031" xlink:href="#b"/>
  <use x="156.089844" y="584.707031" xlink:href="#f"/>
  <use x="161.953125" y="584.707031" xlink:href="#s"/>
  <use x="70" y="592.941406" xlink:href="#r"/>
  <use x="73.582031" y="592.941406" xlink:href="#d"/>
  <use x="77.644531" y="592.941406" xlink:href="#b"/>
  <use x="83.300781" y="592.941406" xlink:href="#q"/>
  <use x="94.75" y="592.941406" xlink:href="#c"/>
  <use x="98.6875" y="592.941406" xlink:href="#p"/>
  <use x="104.550781" y="592.941406" xlink:href="#a"/>
  <use x="113.003906" y="592.941406" xlink:href="#o"/>
  <use x="119.894531" y="592.941406" xlink:href="#b"/>
  <use x="125.550781" y="592.941406" xlink:href="#n"/>
  <use x="131.414063" y="592.941406" xlink:href="#f"/>
  <use x="140.144531" y="592.941406" xlink:href="#m"/>
  <use x="146.179688" y="592.941406" xlink:href="#d"/>
  <use x="150.242188" y="592.941406" xlink:href="#b"/>
  <use x="155.898438" y="592.941406" xlink:href="#l"/>
  <use x="158.722656" y="592.941406" xlink:href="#a"/>
  <use x="164.308594" y="592.941406" xlink:href="#g"/>
  <use x="169.1875" y="592.941406" xlink:href="#c"/>
 </g>
</svg>
