<svg id="Layer_1" data-name="Layer 1" xmlns="http://www.w3.org/2000/svg" viewBox="0 0 252.44 225.57"><defs><style>.cls-1{fill:none;}.cls-1,.cls-2{stroke:#303473;stroke-miterlimit:10;stroke-width:5px;}.cls-2{fill:#303473;}</style></defs><polygon class="cls-1" points="149.41 12.8 136.04 3.09 122.67 12.8 38.36 73.99 49.41 85.39 136.04 22.51 222.67 85.39 233.72 73.99 149.41 12.8"/><polyline class="cls-1" points="181.74 101.59 201.79 101.59 201.79 90.95 201.74 91 175.35 71.84 96.73 71.84 70.81 90.66 70.81 101.59 172.05 101.59"/><polygon class="cls-1" points="96.73 71.84 175.35 71.84 136.04 43.31 96.73 71.84"/><polygon class="cls-2" points="161.11 42.1 149.41 33.6 136.04 23.89 122.67 33.6 110.97 42.1 70.81 71.25 70.81 71.84 70.81 90.66 96.73 71.84 136.04 43.31 175.35 71.84 201.74 91 201.79 90.95 201.79 71.84 201.79 71.63 161.11 42.1"/><rect class="cls-1" x="70.81" y="101.59" width="29.75" height="29.75"/><polyline class="cls-1" points="172.05 101.59 172.05 131.34 201.79 131.34 201.79 101.59"/><rect class="cls-1" x="70.81" y="131.69" width="29.75" height="29.75"/><rect class="cls-1" x="172.05" y="131.69" width="29.75" height="29.75"/><rect class="cls-1" x="172.05" y="161.79" width="29.75" height="29.75"/><polyline class="cls-1" points="100.56 196.06 100.56 161.79 70.81 161.79 70.81 191.54"/><polyline class="cls-1" points="93.62 191.89 70.81 191.89 70.81 221.64 100.56 221.64 100.56 191.89"/><rect class="cls-1" x="172.05" y="191.89" width="29.75" height="29.75"/><polygon class="cls-1" points="122.41 221.64 124.66 221.64 124.66 218.26 122.41 221.64"/><polyline class="cls-1" points="124.66 160.1 100.86 195.88 100.86 221.64 111.9 221.64 124.66 202.47"/><polygon class="cls-1" points="124.66 202.47 111.9 221.64 112.31 221.64 124.66 203.07 124.66 202.47"/><polygon class="cls-1" points="148.46 166.69 124.66 202.47 124.66 203.07 148.46 167.3 148.46 166.69"/><polyline class="cls-1" points="148.46 166.69 172.05 131.23 172.05 101.59 163.58 101.59 148.46 124.33"/><polygon class="cls-1" points="124.66 101.59 100.86 101.59 100.86 195.88 124.66 160.1 124.66 101.59"/><polygon class="cls-1" points="148.46 124.33 148.46 101.59 124.66 101.59 124.66 160.1 148.46 124.33"/><polygon class="cls-1" points="124.66 218.26 124.66 221.64 148.46 221.64 148.46 182.49 124.66 218.26"/><polygon class="cls-1" points="172.05 101.59 172.05 131.23 172.05 131.84 172.05 147.03 148.46 182.49 148.46 221.64 172.25 221.64 172.25 101.59 172.05 101.59"/><polygon class="cls-1" points="163.58 101.59 148.46 101.59 148.46 124.33 163.58 101.59"/><polygon class="cls-2" points="148.46 167.3 124.66 203.07 112.31 221.64 122.41 221.64 124.66 218.26 148.46 182.49 172.05 147.03 172.05 131.84 148.46 167.3"/><polygon class="cls-1" points="148.46 167.3 172.05 131.84 172.05 131.23 148.46 166.69 148.46 167.3"/><circle class="cls-1" cx="112.76" cy="196.06" r="2.53"/><circle class="cls-1" cx="136.56" cy="162.63" r="2.53"/><circle class="cls-1" cx="160.36" cy="130.77" r="2.53"/><rect class="cls-1" x="21.83" y="152.25" width="48.98" height="9.54"/><path class="cls-1" d="M36.92,162H27.38v28.55a78.73,78.73,0,0,1,9.54,6.6Z"/><path class="cls-1" d="M61,223.41c.66-16.65-10.9-32-13.09-33.83a.19.19,0,0,0-.31.12l-2.14,15.24a75.89,75.89,0,0,0-8.52-7.81,78.73,78.73,0,0,0-9.54-6.6c-5.7-3.28-11.69-5.42-16.4-4.09,3.6,9.09,7.3,18.5,7.3,18.5s-10.21-3.6-14.85,1c5.92,6.73,9,19,9,19"/><path class="cls-1" d="M201.79,203.72l18.86-28.2a.54.54,0,0,1,1,.31l-.81,26.23L238.38,191a.07.07,0,0,1,.1.08l-4.83,15.65,13.23,14.95H201.79Z"/></svg>